<svg width="58" height="58" viewBox="0 0 58 58" fill="none" xmlns="http://www.w3.org/2000/svg">
<path d="M45.9167 7.25H36.25V12.0833H45.9167V21.75H50.75V12.0833C50.75 10.8015 50.2408 9.57208 49.3344 8.66565C48.4279 7.75922 47.1985 7.25 45.9167 7.25ZM45.9167 45.9167H36.25V50.75H45.9167C47.1985 50.75 48.4279 50.2408 49.3344 49.3344C50.2408 48.4279 50.75 47.1985 50.75 45.9167V36.25H45.9167M12.0833 36.25H7.25V45.9167C7.25 47.1985 7.75922 48.4279 8.66565 49.3344C9.57208 50.2408 10.8015 50.75 12.0833 50.75H21.75V45.9167H12.0833M7.25 12.0833V21.75H12.0833V12.0833H21.75V7.25H12.0833C10.8015 7.25 9.57208 7.75922 8.66565 8.66565C7.75922 9.57208 7.25 10.8015 7.25 12.0833Z" fill="#007AFF"/>
</svg>
