<svg width="43" height="43" viewBox="0 0 43 43" fill="none" xmlns="http://www.w3.org/2000/svg">
<path d="M10.7498 39.417C9.76442 39.417 8.92055 39.0658 8.21822 38.3635C7.51588 37.6612 7.16531 36.8179 7.16651 35.8337V17.917C7.16651 16.9316 7.51767 16.0877 8.22001 15.3854C8.92234 14.683 9.76562 14.3325 10.7498 14.3337H12.5415V10.7503C12.5415 8.27185 13.4152 6.15888 15.1627 4.41141C16.9102 2.66394 19.0226 1.7908 21.4998 1.79199C23.9783 1.79199 26.0913 2.66573 27.8388 4.4132C29.5862 6.16067 30.4594 8.27305 30.4582 10.7503V14.3337H32.2498C33.2353 14.3337 34.0791 14.6848 34.7815 15.3872C35.4838 16.0895 35.8344 16.9328 35.8332 17.917V35.8337C35.8332 36.8191 35.482 37.6629 34.7797 38.3653C34.0773 39.0676 33.2341 39.4182 32.2498 39.417H10.7498ZM21.4998 30.4587C22.4853 30.4587 23.3291 30.1075 24.0315 29.4052C24.7338 28.7028 25.0844 27.8595 25.0832 26.8753C25.0832 25.8899 24.732 25.046 24.0297 24.3437C23.3273 23.6414 22.4841 23.2908 21.4998 23.292C20.5144 23.292 19.6705 23.6432 18.9682 24.3455C18.2659 25.0478 17.9153 25.8911 17.9165 26.8753C17.9165 27.8607 18.2677 28.7046 18.97 29.407C19.6723 30.1093 20.5156 30.4599 21.4998 30.4587ZM16.1248 14.3337H26.8748V10.7503C26.8748 9.25727 26.3523 7.98817 25.3071 6.94304C24.262 5.8979 22.9929 5.37533 21.4998 5.37533C20.0068 5.37533 18.7377 5.8979 17.6925 6.94304C16.6474 7.98817 16.1248 9.25727 16.1248 10.7503V14.3337Z" fill="#007AFF"/>
</svg>
