<svg width="282" height="282" viewBox="0 0 282 282" fill="none" xmlns="http://www.w3.org/2000/svg">
<path d="M33.2133 31.3333H248.63L233.903 15.6667H45.9033L33.2133 31.3333ZM274.793 34.9367C279.337 40.2633 282 47 282 54.8333V250.667C282 258.977 278.699 266.947 272.823 272.823C266.947 278.699 258.977 282 250.667 282H31.3333C23.0232 282 15.0535 278.699 9.17732 272.823C3.30118 266.947 0 258.977 0 250.667V54.8333C0 47 2.66333 40.2633 7.20667 34.9367L28.8267 8.61667C33.2133 3.29 39.6367 0 47 0H235C242.363 0 248.787 3.29 253.017 8.61667L274.793 34.9367ZM47 235H141V188H47V235Z" fill="#F5F5F7"/>
</svg>
