<svg width="100" height="100" viewBox="0 0 100 100" fill="none" xmlns="http://www.w3.org/2000/svg">
<g clip-path="url(#clip0_265_2229)">
<rect width="100" height="100" fill="url(#paint0_linear_265_2229)"/>
<g filter="url(#filter0_d_265_2229)">
<path d="M69.9833 79.3334V101H54.1002L53.23 75.2831C55.4392 66.2621 62.0669 58.7139 63.5397 57.9775C64.718 57.3884 66.5467 55.5533 67.7741 54.6941C68.8787 53.2213 69.6151 52.0862 69.9833 50.9816C74.2177 46.2254 76.7951 50.4293 76.7951 50.9816C76.7951 51.4234 76.5496 52.6385 76.4269 53.1908L71.8243 59.0821L68.6946 61.1072C68.6946 61.4754 68.8051 62.2855 69.2469 62.5801C69.6887 62.8746 71.1493 62.4573 71.8243 62.2118C74.1563 59.4503 78.9307 53.78 79.3725 53.1908C79.8144 52.6017 79.5566 51.718 79.3725 51.3498L78.8202 50.0611L79.3725 43.6175L81.2136 32.019C83.2755 29.0734 85.2638 30.7917 86.0002 32.019V52.4544L84.7115 62.9482C84.7115 64.5684 83.2387 66.3235 82.5023 66.9985L69.9833 79.3334Z" fill="white"/>
</g>
<g filter="url(#filter1_d_265_2229)">
<path d="M30.2169 79.3586L30.9533 101.4H46.1L46.9702 75.3062C44.761 66.2806 38.1333 58.7285 36.6605 57.9917C35.4822 57.4022 33.6535 55.5662 32.4261 54.7066C31.3215 53.233 30.5851 52.0974 30.2169 50.9922C25.9825 46.2335 23.4051 50.4396 23.4051 50.9922C23.4051 51.4343 23.6506 52.65 23.7733 53.2026L28.3759 59.0969L31.5056 61.123C31.5056 61.4914 31.3951 62.3019 30.9533 62.5966C30.5114 62.8913 29.0509 62.4738 28.3759 62.2282C26.0439 59.4653 21.2695 53.792 20.8277 53.2026C20.3858 52.6131 20.6435 51.729 20.8277 51.3606L21.38 50.0712L20.8277 43.6243L18.9866 32.0199C16.9247 29.0727 14.9364 30.7919 14.2 32.0199V52.4658L15.4887 62.965C15.4887 64.5859 16.9615 66.3419 17.6979 67.0173L30.2169 79.3586Z" fill="white"/>
</g>
<g filter="url(#filter2_d_265_2229)">
<path d="M50.2002 64.1476L46.2852 60.5751C32.3802 47.9357 23.2002 39.5726 23.2002 29.3691C23.2002 21.0061 29.7342 14.4834 38.0502 14.4834C42.7482 14.4834 47.2572 16.6757 50.2002 20.1129C53.1432 16.6757 57.6522 14.4834 62.3502 14.4834C70.6662 14.4834 77.2002 21.0061 77.2002 29.3691C77.2002 39.5726 68.0202 47.9357 54.1152 60.5751L50.2002 64.1476Z" fill="#E25840"/>
</g>
<g filter="url(#filter3_d_265_2229)">
<path d="M50.3003 64.2447L47.6242 61.8079C38.1193 53.1868 31.8442 47.4825 31.8442 40.5229C31.8442 34.8186 36.3106 30.3696 41.9951 30.3696C45.2064 30.3696 48.2886 31.8649 50.3003 34.2094C52.312 31.8649 55.3942 30.3696 58.6055 30.3696C64.29 30.3696 68.7564 34.8186 68.7564 40.5229C68.7564 47.4825 62.4813 53.1868 52.9764 61.8079L50.3003 64.2447Z" fill="#F36E57"/>
</g>
<g filter="url(#filter4_d_265_2229)">
<path d="M50.3003 64.1999L48.4878 62.5598C42.0503 56.7573 37.8003 52.9179 37.8003 48.2337C37.8003 44.3943 40.8253 41.3999 44.6753 41.3999C46.8503 41.3999 48.9378 42.4063 50.3003 43.9843C51.6628 42.4063 53.7503 41.3999 55.9253 41.3999C59.7753 41.3999 62.8003 44.3943 62.8003 48.2337C62.8003 52.9179 58.5503 56.7573 52.1128 62.5598L50.3003 64.1999Z" fill="#F78B78"/>
</g>
</g>
<defs>
<filter id="filter0_d_265_2229" x="8.22998" y="15.3926" width="82.77" height="120.607" filterUnits="userSpaceOnUse" color-interpolation-filters="sRGB">
<feFlood flood-opacity="0" result="BackgroundImageFix"/>
<feColorMatrix in="SourceAlpha" type="matrix" values="0 0 0 0 0 0 0 0 0 0 0 0 0 0 0 0 0 0 127 0" result="hardAlpha"/>
<feOffset dx="-20" dy="10"/>
<feGaussianBlur stdDeviation="12.5"/>
<feComposite in2="hardAlpha" operator="out"/>
<feColorMatrix type="matrix" values="0 0 0 0 0 0 0 0 0 0 0 0 0 0 0 0 0 0 0.25 0"/>
<feBlend mode="normal" in2="BackgroundImageFix" result="effect1_dropShadow_265_2229"/>
<feBlend mode="normal" in="SourceGraphic" in2="effect1_dropShadow_265_2229" result="shape"/>
</filter>
<filter id="filter1_d_265_2229" x="-30.7998" y="15.3926" width="82.77" height="121.007" filterUnits="userSpaceOnUse" color-interpolation-filters="sRGB">
<feFlood flood-opacity="0" result="BackgroundImageFix"/>
<feColorMatrix in="SourceAlpha" type="matrix" values="0 0 0 0 0 0 0 0 0 0 0 0 0 0 0 0 0 0 127 0" result="hardAlpha"/>
<feOffset dx="-20" dy="10"/>
<feGaussianBlur stdDeviation="12.5"/>
<feComposite in2="hardAlpha" operator="out"/>
<feColorMatrix type="matrix" values="0 0 0 0 0 0 0 0 0 0 0 0 0 0 0 0 0 0 0.25 0"/>
<feBlend mode="normal" in2="BackgroundImageFix" result="effect1_dropShadow_265_2229"/>
<feBlend mode="normal" in="SourceGraphic" in2="effect1_dropShadow_265_2229" result="shape"/>
</filter>
<filter id="filter2_d_265_2229" x="-8.7998" y="14.4834" width="118" height="118.664" filterUnits="userSpaceOnUse" color-interpolation-filters="sRGB">
<feFlood flood-opacity="0" result="BackgroundImageFix"/>
<feColorMatrix in="SourceAlpha" type="matrix" values="0 0 0 0 0 0 0 0 0 0 0 0 0 0 0 0 0 0 127 0" result="hardAlpha"/>
<feOffset dy="37"/>
<feGaussianBlur stdDeviation="16"/>
<feComposite in2="hardAlpha" operator="out"/>
<feColorMatrix type="matrix" values="0 0 0 0 0 0 0 0 0 0 0 0 0 0 0 0 0 0 0.25 0"/>
<feBlend mode="normal" in2="BackgroundImageFix" result="effect1_dropShadow_265_2229"/>
<feBlend mode="normal" in="SourceGraphic" in2="effect1_dropShadow_265_2229" result="shape"/>
</filter>
<filter id="filter3_d_265_2229" x="-57.1558" y="30.3696" width="128.912" height="127.875" filterUnits="userSpaceOnUse" color-interpolation-filters="sRGB">
<feFlood flood-opacity="0" result="BackgroundImageFix"/>
<feColorMatrix in="SourceAlpha" type="matrix" values="0 0 0 0 0 0 0 0 0 0 0 0 0 0 0 0 0 0 127 0" result="hardAlpha"/>
<feOffset dx="-43" dy="48"/>
<feGaussianBlur stdDeviation="23"/>
<feComposite in2="hardAlpha" operator="out"/>
<feColorMatrix type="matrix" values="0 0 0 0 0 0 0 0 0 0 0 0 0 0 0 0 0 0 0.25 0"/>
<feBlend mode="normal" in2="BackgroundImageFix" result="effect1_dropShadow_265_2229"/>
<feBlend mode="normal" in="SourceGraphic" in2="effect1_dropShadow_265_2229" result="shape"/>
</filter>
<filter id="filter4_d_265_2229" x="-51.1997" y="41.3999" width="117" height="116.8" filterUnits="userSpaceOnUse" color-interpolation-filters="sRGB">
<feFlood flood-opacity="0" result="BackgroundImageFix"/>
<feColorMatrix in="SourceAlpha" type="matrix" values="0 0 0 0 0 0 0 0 0 0 0 0 0 0 0 0 0 0 127 0" result="hardAlpha"/>
<feOffset dx="-43" dy="48"/>
<feGaussianBlur stdDeviation="23"/>
<feComposite in2="hardAlpha" operator="out"/>
<feColorMatrix type="matrix" values="0 0 0 0 0 0 0 0 0 0 0 0 0 0 0 0 0 0 0.25 0"/>
<feBlend mode="normal" in2="BackgroundImageFix" result="effect1_dropShadow_265_2229"/>
<feBlend mode="normal" in="SourceGraphic" in2="effect1_dropShadow_265_2229" result="shape"/>
</filter>
<linearGradient id="paint0_linear_265_2229" x1="50" y1="0" x2="50" y2="100" gradientUnits="userSpaceOnUse">
<stop stop-color="#2A3632"/>
<stop offset="0.0001" stop-color="#27322F"/>
<stop offset="1" stop-color="#111518"/>
</linearGradient>
<clipPath id="clip0_265_2229">
<rect width="100" height="100" fill="white"/>
</clipPath>
</defs>
</svg>
